<?xml version="1.0" standalone="no"?>
<!DOCTYPE svg PUBLIC "-//W3C//DTD SVG 20010904//EN"
 "http://www.w3.org/TR/2001/REC-SVG-20010904/DTD/svg10.dtd">
<svg version="1.0" xmlns="http://www.w3.org/2000/svg"
 width="500.000000pt" height="500.000000pt" viewBox="0 0 500.000000 500.000000"
 preserveAspectRatio="xMidYMid meet">

<g transform="translate(0.000000,500.000000) scale(0.100000,-0.100000)"
fill="#000000" stroke="none">
<path d="M2375 4464 c-16 -2 -73 -9 -125 -15 -330 -39 -685 -186 -985 -408
-91 -68 -305 -284 -384 -390 -284 -375 -428 -827 -406 -1276 15 -294 73 -527
195 -781 167 -347 451 -652 796 -856 138 -82 346 -170 491 -208 206 -54 330
-70 551 -70 344 1 614 62 917 210 569 278 962 787 1090 1413 52 260 43 587
-25 849 -54 210 -151 422 -276 609 -329 490 -809 800 -1396 904 -81 14 -382
28 -443 19z m510 -158 c224 -48 291 -76 341 -141 26 -35 29 -46 34 -156 4 -65
8 -120 11 -122 2 -2 33 -19 69 -36 205 -103 447 -344 584 -584 15 -27 26 -50
24 -53 -2 -2 -101 -4 -220 -5 -240 -1 -271 -7 -227 -47 22 -21 31 -22 251 -22
l228 0 24 -47 c44 -89 89 -247 115 -404 13 -80 15 -349 2 -416 -5 -26 -14 -79
-21 -118 -18 -100 -81 -287 -130 -385 -86 -172 -203 -330 -349 -475 l-72 -70
-1037 -3 -1037 -2 -110 112 c-135 138 -226 265 -304 423 -122 247 -171 454
-171 725 0 218 29 372 104 554 l41 101 225 3 c191 2 227 5 242 19 24 22 23 40
-4 46 -13 3 -113 6 -223 7 -109 0 -201 2 -203 5 -7 7 66 123 140 222 127 172
309 333 458 408 l68 34 3 114 c4 106 6 117 34 162 45 72 116 102 365 150 175
34 171 34 410 30 183 -3 233 -8 335 -29z m535 -194 c222 -120 401 -271 586
-494 32 -38 104 -148 104 -159 0 -5 4 -9 9 -9 5 0 12 -7 15 -16 5 -12 2 -15
-11 -10 -15 5 -15 4 1 -9 11 -8 24 -15 29 -15 4 0 6 -4 3 -9 -3 -5 1 -14 9
-21 8 -7 12 -16 9 -21 -3 -5 -1 -9 5 -9 6 0 8 -8 4 -17 -3 -10 -3 -15 2 -11 9
9 39 -43 49 -87 4 -16 16 -35 26 -42 11 -8 17 -23 16 -38 -2 -13 1 -22 5 -19
5 3 9 1 9 -5 0 -5 3 -18 6 -28 5 -15 4 -15 -5 -3 -8 12 -10 9 -8 -15 2 -34 25
-65 46 -65 8 0 11 -3 8 -6 -3 -4 -2 -15 3 -24 10 -20 -10 -46 -25 -32 -5 4 -5
1 -1 -6 4 -7 11 -10 16 -7 17 11 50 -61 46 -99 -3 -20 -2 -35 2 -32 4 2 8 -4
8 -15 0 -23 0 -23 -21 -2 -16 15 -16 14 -11 -22 4 -21 11 -44 17 -51 6 -7 8
-18 4 -24 -7 -12 19 -42 29 -33 3 4 6 -1 6 -10 0 -9 -4 -17 -10 -17 -5 0 -10
-5 -10 -11 0 -5 5 -7 10 -4 6 4 10 -12 10 -40 0 -28 -4 -44 -10 -40 -5 3 -10
1 -10 -4 0 -6 4 -11 9 -11 17 0 23 -41 11 -71 -7 -16 -16 -29 -21 -29 -5 0 -9
-8 -9 -17 0 -16 2 -16 11 -3 9 12 10 11 4 -5 -15 -43 -13 -77 7 -97 13 -13 18
-27 14 -41 -3 -12 -6 -30 -6 -40 0 -11 -4 -15 -12 -11 -8 5 -9 2 -5 -9 4 -11
1 -17 -8 -17 -18 0 -19 21 -2 40 10 12 9 12 -5 1 -17 -12 -22 -71 -6 -71 4 0
8 5 8 10 0 6 4 10 9 10 4 0 7 -10 6 -22 -1 -13 -3 -32 -5 -43 -1 -11 -4 -15
-7 -7 -6 14 -43 16 -43 2 0 -5 6 -10 14 -10 8 0 18 -5 22 -11 4 -8 0 -9 -15
-4 -28 9 -27 -9 2 -24 l22 -12 -22 5 c-13 2 -26 0 -29 -5 -3 -5 4 -9 14 -9 16
0 19 -5 14 -22 -5 -19 -7 -20 -10 -5 -4 22 -18 22 -31 0 -6 -11 -6 -24 0 -35
6 -11 5 -20 -4 -25 -7 -4 -20 -32 -29 -61 -9 -28 -12 -50 -8 -47 5 3 12 0 16
-6 4 -7 3 -9 -2 -6 -20 12 -34 -10 -77 -114 -13 -33 -13 -38 0 -52 12 -11 13
-19 4 -33 -6 -11 -11 -14 -11 -9 -1 6 -5 1 -9 -9 -7 -19 -8 -19 -13 2 -5 17
-2 22 13 22 19 0 25 11 12 23 -8 9 -43 -22 -43 -38 0 -7 -7 -18 -16 -26 -8 -7
-13 -21 -11 -31 3 -10 2 -16 -3 -13 -4 3 -13 -2 -20 -10 -10 -12 -9 -16 4 -21
9 -3 13 -11 10 -16 -4 -6 -10 -5 -15 3 -4 7 -9 11 -11 9 -2 -3 -13 -19 -25
-36 -17 -24 -19 -34 -10 -43 9 -9 8 -11 -7 -5 -13 5 -17 4 -12 -4 4 -8 1 -12
-10 -12 -10 0 -15 -2 -12 -5 3 -3 -7 -20 -23 -38 -69 -79 -79 -93 -74 -105 3
-7 1 -11 -4 -8 -12 8 -63 -42 -56 -54 3 -5 0 -7 -9 -4 -16 6 -40 -28 -28 -41
4 -5 1 -5 -7 0 -10 6 -12 2 -7 -16 7 -23 7 -23 -8 -5 -15 18 -16 18 -16 2 0
-9 -4 -15 -9 -12 -5 4 -8 -2 -6 -11 2 -10 4 -20 4 -23 1 -3 6 2 11 10 6 9 10
10 10 3 0 -19 -17 -24 -30 -8 -9 11 -15 12 -25 2 -7 -7 -11 -15 -8 -19 2 -5
-3 -8 -11 -8 -10 0 -13 -6 -9 -16 3 -8 12 -13 21 -9 12 4 13 3 2 -10 -13 -16
-35 -21 -26 -6 3 5 -1 14 -9 21 -12 10 -15 9 -15 -4 0 -10 -4 -14 -10 -11 -14
9 -13 -8 2 -23 7 -7 8 -12 2 -12 -5 0 -14 4 -20 10 -6 6 -18 4 -33 -6 -18 -13
-20 -18 -10 -26 11 -8 11 -9 -1 -5 -20 6 -52 -11 -45 -23 3 -6 -1 -7 -9 -4 -8
3 -24 -4 -35 -15 -12 -12 -21 -18 -21 -15 0 3 -13 -4 -29 -15 -16 -12 -34 -21
-41 -21 -6 0 -8 -4 -5 -10 3 -5 1 -10 -6 -10 -8 0 -8 -5 2 -18 12 -15 11 -15
-8 1 -18 16 -24 16 -42 5 -13 -8 -19 -19 -16 -28 5 -11 3 -12 -5 -3 -15 14
-88 -16 -102 -41 -5 -9 -14 -16 -21 -16 -7 0 -6 4 3 10 9 6 10 10 3 10 -6 0
-15 -5 -18 -10 -4 -6 -11 -8 -16 -5 -9 6 -13 -7 -10 -31 1 -6 -7 -18 -16 -25
-16 -12 -17 -12 -6 2 11 13 9 18 -12 27 -14 6 -24 8 -24 4 4 -22 -2 -52 -10
-52 -5 0 -8 8 -7 18 1 11 -6 17 -19 17 -14 0 -19 -6 -17 -20 2 -19 2 -19 -8
-2 -13 20 -47 15 -67 -11 -7 -9 -13 -11 -13 -5 0 6 -11 8 -25 5 -14 -2 -23 -7
-21 -11 2 -3 -8 -7 -22 -8 -53 -4 -89 -10 -102 -18 -7 -4 -26 -8 -41 -7 -16 0
-29 -5 -29 -11 0 -7 -4 -6 -10 3 -7 11 -12 12 -21 3 -6 -6 -18 -9 -27 -6 -10
4 -13 2 -8 -5 4 -7 2 -12 -3 -12 -6 0 -11 4 -11 8 0 4 -9 8 -20 8 -11 0 -20
-4 -20 -9 0 -5 -6 -4 -13 2 -8 6 -16 9 -18 6 -3 -2 -31 -5 -62 -6 -31 -1 -54
-6 -51 -10 2 -4 0 -11 -6 -14 -6 -4 -9 -1 -8 7 4 15 -110 30 -129 16 -6 -5
-12 -5 -15 1 -4 13 -109 23 -127 12 -16 -10 -43 -3 -36 9 3 5 -4 6 -15 3 -11
-3 -20 -1 -20 4 0 5 -10 10 -22 10 -19 1 -46 6 -65 12 -2 1 -6 2 -10 2 -5 1
-18 5 -30 10 -24 9 -33 -5 -10 -15 6 -3 3 -4 -8 -3 -13 2 -19 9 -17 21 2 13
-3 17 -20 16 -39 -4 -59 0 -54 8 5 8 -1 10 -44 14 -11 1 -20 5 -20 9 0 4 -25
17 -55 28 -30 11 -87 37 -125 56 -39 20 -76 33 -82 29 -6 -4 -8 -3 -5 3 7 10
-20 28 -35 25 -5 -1 -8 3 -8 8 0 6 -5 10 -12 10 -6 0 -20 8 -31 18 -11 9 -17
11 -13 5 5 -9 2 -11 -8 -7 -9 3 -14 10 -11 15 8 13 -34 31 -59 25 -18 -4 -19
-4 -5 7 15 11 11 17 -35 49 -29 20 -65 40 -81 44 -24 6 -26 8 -11 14 17 6 17
7 0 20 -16 13 -17 13 -10 0 4 -9 1 -8 -7 2 -16 20 -32 25 -21 6 5 -7 3 -8 -5
-4 -7 5 -10 15 -6 23 4 13 3 14 -10 3 -13 -11 -14 -10 -9 4 5 12 0 16 -21 16
-14 0 -24 3 -22 8 4 8 -29 42 -40 41 -4 0 -9 5 -12 12 -2 7 1 9 9 4 9 -5 11
-4 6 4 -4 6 -10 9 -14 7 -7 -4 -30 17 -35 31 -1 5 -5 7 -9 6 -4 -2 -10 6 -13
17 -3 10 -16 20 -28 22 -15 2 -18 6 -10 11 7 5 21 -1 33 -13 12 -12 24 -19 27
-17 7 8 -78 68 -87 62 -30 -18 -197 253 -271 438 -86 213 -139 547 -125 775
39 604 351 1136 876 1489 55 37 226 128 258 138 l23 7 -20 -41 c-12 -22 -21
-49 -21 -60 0 -15 -15 -28 -52 -47 -28 -14 -89 -51 -136 -81 -414 -267 -709
-700 -802 -1179 -28 -143 -36 -347 -20 -499 42 -415 241 -809 557 -1104 137
-128 255 -210 418 -291 342 -169 676 -228 1050 -185 206 23 398 79 590 169
433 204 780 597 929 1051 68 205 81 293 81 535 0 138 -5 240 -13 285 -103 538
-407 975 -872 1253 -47 28 -97 56 -111 62 -17 8 -30 26 -41 58 -8 26 -18 55
-22 64 -7 16 -3 15 40 -4 27 -11 78 -37 114 -56z m13 -200 c22 -20 22 -42 -1
-42 -29 0 -62 29 -62 56 0 22 2 24 23 13 12 -6 30 -18 40 -27z m-1793 9 c0
-21 -2 -22 -155 -137 -55 -41 -125 -98 -155 -127 -88 -84 -98 -90 -70 -39 38
67 166 191 268 260 51 34 98 62 103 62 5 0 9 -9 9 -19z m1954 -146 c16 -14 27
-28 24 -31 -10 -9 -68 26 -68 41 0 21 11 19 44 -10z m411 -453 c-3 -3 -11 0
-18 7 -9 10 -8 11 6 5 10 -3 15 -9 12 -12z m25 -52 c0 24 16 0 68 -105 152
-307 203 -641 146 -975 -56 -337 -206 -636 -451 -900 -53 -58 -57 -60 -105
-60 l-50 0 83 88 c304 320 469 730 469 1165 0 209 -62 484 -155 692 -15 33
-28 78 -29 100 l-3 40 13 -30 c7 -16 13 -23 14 -15z m288 -227 c0 -21 -2 -23
-10 -9 -5 9 -6 21 -3 26 10 16 13 12 13 -17z m-3404 -33 c-1 -3 -7 -23 -14
-45 -44 -150 -61 -252 -67 -421 -18 -474 147 -898 486 -1246 l65 -68 -46 0
c-45 0 -48 2 -132 91 -203 216 -352 505 -416 810 -27 128 -38 393 -21 519 14
104 59 284 72 288 5 2 7 7 4 12 -3 4 0 21 5 37 8 23 16 29 38 28 15 0 26 -2
26 -5z m3499 -679 c3 -13 0 -18 -7 -15 -7 3 -13 11 -13 19 0 22 14 18 20 -4z
m-85 -418 c-2 -9 -10 -18 -18 -20 -12 -4 -13 -3 -1 5 7 5 10 15 7 21 -4 6 -2
11 4 11 6 0 10 -8 8 -17z m-8 -53 c-6 -11 -13 -20 -16 -20 -3 0 -2 5 1 10 3 6
0 10 -7 11 -10 0 12 14 30 18 1 1 -2 -8 -8 -19z m-50 -119 c0 -5 -7 -11 -14
-14 -10 -4 -13 -1 -9 9 6 15 23 19 23 5z m-7 -36 c-3 -9 -8 -14 -10 -11 -3 3
-2 9 2 15 9 16 15 13 8 -4z m-159 -253 c3 -5 -1 -9 -9 -9 -8 0 -12 4 -9 9 3 4
7 8 9 8 2 0 6 -4 9 -8z m-114 -166 c0 -2 -8 -10 -17 -17 -16 -13 -17 -12 -4 4
13 16 21 21 21 13z m-336 -135 c-26 -24 -229 -154 -294 -189 -253 -136 -557
-212 -845 -212 -389 0 -711 103 -1057 338 -42 28 -79 56 -83 62 -4 7 367 10
1141 10 645 0 1144 -4 1138 -9z m-2214 -207 c0 -8 -19 -13 -24 -6 -3 5 1 9 9
9 8 0 15 -2 15 -3z m2150 -19 c0 -12 -19 -12 -23 0 -4 9 -1 12 9 8 7 -3 14 -7
14 -8z m-83 -36 c-9 -6 -15 -14 -13 -18 3 -4 -2 -8 -10 -8 -11 0 -9 6 8 24 12
12 24 20 27 17 3 -3 -2 -10 -12 -15z m-87 -73 c0 -3 -4 -8 -10 -11 -5 -3 -10
-1 -10 4 0 6 5 11 10 11 6 0 10 -2 10 -4z m-73 -33 c2 -6 -4 -13 -13 -17 -14
-5 -15 -4 -5 8 8 10 9 16 1 19 -6 3 -5 4 2 3 6 -1 13 -7 15 -13z m-283 -93
c-6 -6 -15 -5 -24 1 -13 9 -12 10 3 5 9 -3 17 0 17 6 0 6 3 8 7 5 4 -4 2 -12
-3 -17z m-1024 -30 c-8 -5 -19 -10 -25 -10 -5 0 -3 5 5 10 8 5 20 10 25 10 6
0 3 -5 -5 -10z m900 -5 c0 -8 -4 -15 -8 -15 -5 0 -9 7 -9 15 0 8 4 15 9 15 4
0 8 -7 8 -15z m-66 -10 c-6 -16 -24 -21 -24 -7 0 11 11 22 21 22 5 0 6 -7 3
-15z m36 1 c0 -3 -4 -8 -10 -11 -5 -3 -10 -1 -10 4 0 6 5 11 10 11 6 0 10 -2
10 -4z m-75 -15 c3 -5 1 -12 -5 -16 -5 -3 -10 1 -10 9 0 18 6 21 15 7z m-496
-30 c-15 -5 -22 6 -14 19 6 9 10 9 16 -1 5 -8 4 -15 -2 -18z m-54 9 c3 -6 -1
-7 -9 -4 -18 7 -21 14 -7 14 6 0 13 -4 16 -10z m100 0 c-3 -5 -1 -10 6 -10 7
0 10 -2 7 -5 -3 -3 -13 -2 -22 1 -14 5 -15 9 -4 15 17 11 20 11 13 -1z m160
-10 c3 -6 -1 -7 -9 -4 -18 7 -21 14 -7 14 6 0 13 -4 16 -10z m70 -8 c-3 -3
-11 0 -18 7 -9 10 -8 11 6 5 10 -3 15 -9 12 -12z"/>
<path d="M2315 4269 c-199 -19 -444 -81 -482 -121 -34 -37 -43 -93 -43 -281 0
-281 -4 -277 270 -278 107 0 191 -2 185 -4 -5 -2 -44 -14 -85 -26 -184 -55
-335 -145 -482 -287 -288 -279 -412 -661 -333 -1027 51 -236 156 -430 324
-595 231 -229 521 -350 841 -350 438 0 851 258 1049 656 71 143 108 292 118
467 18 335 -143 684 -423 916 -139 115 -252 175 -439 231 l-60 18 187 1 c103
1 198 5 212 11 50 18 56 50 56 276 0 287 -2 290 -221 344 -212 52 -456 69
-674 49z m435 -94 c110 -13 295 -56 332 -76 33 -18 38 -46 38 -211 0 -132 -3
-168 -16 -186 l-15 -22 -583 0 c-487 0 -585 2 -602 14 -17 13 -19 30 -22 176
-4 169 4 212 38 230 28 15 222 59 323 74 126 18 369 19 507 1z m-303 -826 c2
-57 9 -114 15 -126 8 -16 6 -51 -5 -130 -18 -117 -33 -257 -43 -395 -5 -76 -9
-89 -29 -102 -73 -48 -92 -172 -39 -248 16 -24 48 -51 74 -64 41 -21 45 -26
55 -75 5 -29 16 -54 22 -57 15 -4 33 38 33 79 0 25 6 32 43 48 71 31 117 94
117 162 0 25 44 74 307 339 327 331 316 322 349 258 l15 -28 -77 -48 c-115
-71 -128 -84 -120 -115 12 -49 45 -45 144 17 48 31 93 56 100 56 16 0 57 -84
50 -102 -3 -7 -29 -21 -57 -32 -28 -10 -51 -21 -51 -25 0 -19 16 -18 67 1 30
11 58 16 62 12 7 -8 31 -83 31 -96 0 -3 -25 -10 -55 -17 -51 -12 -74 -25 -62
-38 3 -2 31 1 62 7 31 6 58 10 60 8 3 -2 7 -30 11 -61 l7 -57 -125 0 c-133 0
-148 -5 -148 -50 0 -45 15 -50 148 -50 l125 0 -7 -56 c-4 -31 -9 -60 -11 -64
-3 -4 -22 -4 -42 1 -54 12 -85 11 -81 -3 2 -6 28 -17 56 -24 29 -6 55 -14 58
-16 9 -10 -20 -98 -33 -98 -7 0 -33 7 -58 15 -44 16 -71 13 -60 -6 3 -5 31
-16 61 -25 29 -8 54 -19 54 -24 0 -8 -39 -102 -45 -108 -1 -2 -48 22 -102 52
-108 61 -136 67 -153 36 -19 -36 -1 -58 88 -111 123 -74 116 -64 80 -115 -17
-24 -34 -44 -38 -44 -4 0 -28 16 -54 36 -32 24 -51 33 -58 26 -6 -6 6 -23 36
-48 25 -21 46 -43 46 -48 0 -12 -60 -76 -71 -76 -4 0 -26 19 -48 42 -30 32
-43 40 -52 31 -8 -8 -2 -21 25 -51 20 -22 36 -44 36 -50 0 -10 -78 -72 -90
-72 -4 0 -33 43 -66 95 -61 98 -79 114 -114 95 -32 -17 -24 -52 31 -145 28
-48 48 -92 46 -99 -3 -7 -28 -22 -55 -33 l-50 -21 -22 54 c-12 30 -26 54 -29
54 -18 0 -18 -15 -1 -66 14 -41 16 -56 7 -59 -7 -2 -27 -8 -46 -14 -19 -6 -37
-11 -42 -11 -7 0 -21 39 -33 93 -4 15 -11 27 -18 27 -7 0 -9 -19 -4 -64 l6
-63 -31 -7 c-94 -18 -99 -12 -99 130 0 97 -7 114 -50 114 -41 0 -50 -17 -50
-99 0 -42 -3 -93 -7 -115 l-6 -38 -53 5 c-30 3 -57 8 -62 11 -5 3 -4 28 2 56
7 37 7 53 -2 62 -13 13 -12 14 -33 -65 -10 -43 -15 -48 -33 -42 -12 4 -33 9
-48 12 -32 6 -35 21 -14 81 10 28 11 44 5 48 -14 9 -23 -3 -43 -58 l-17 -46
-51 21 c-27 11 -52 26 -55 33 -3 7 18 53 46 101 53 93 61 122 36 143 -31 25
-59 3 -119 -95 -32 -52 -61 -95 -63 -95 -13 0 -93 63 -93 73 1 7 14 28 30 47
30 34 39 60 21 60 -5 0 -24 -18 -42 -40 -18 -22 -39 -40 -45 -40 -12 0 -74 65
-74 78 0 4 21 25 46 46 31 27 42 42 35 49 -7 7 -24 -1 -55 -26 -24 -21 -48
-37 -53 -37 -14 1 -65 80 -60 94 3 7 38 32 79 56 40 23 81 50 91 58 33 29 16
82 -27 82 -11 0 -62 -25 -114 -56 -51 -31 -95 -54 -97 -52 -6 6 -45 99 -45
108 0 5 24 16 53 25 28 10 56 21 61 26 19 17 -24 20 -70 4 -26 -9 -51 -12 -55
-8 -4 4 -12 26 -18 48 -12 45 -7 51 49 61 50 8 60 12 60 24 0 13 -45 13 -87 1
-18 -5 -35 -6 -38 -2 -2 5 -7 34 -11 65 l-7 56 126 0 c124 0 127 1 143 25 15
23 15 27 0 50 -16 24 -19 25 -143 25 l-126 0 7 53 c4 28 10 55 14 59 4 4 25 3
47 -2 91 -21 104 4 16 30 -29 8 -52 17 -52 20 1 31 16 92 23 96 5 3 32 -4 59
-15 27 -12 54 -19 60 -16 16 11 -6 30 -52 45 -23 8 -43 20 -46 27 -4 10 35
103 43 103 2 0 42 -25 89 -55 85 -55 120 -66 143 -43 17 17 15 53 -5 70 -10 8
-51 34 -91 58 -40 23 -75 46 -78 51 -3 5 9 29 27 54 35 49 37 49 94 -4 28 -25
40 -30 48 -21 9 9 2 20 -31 48 -23 20 -42 42 -42 48 0 5 15 25 34 43 l34 33
41 -43 c28 -30 44 -40 51 -33 7 7 -1 23 -25 51 -19 23 -35 44 -35 47 0 9 92
76 99 71 4 -2 32 -43 61 -90 59 -94 79 -112 110 -95 32 17 24 58 -29 150 -27
46 -47 88 -44 93 10 16 95 49 102 40 4 -4 16 -29 25 -55 10 -27 22 -48 26 -48
18 0 19 19 5 60 -8 23 -15 48 -15 55 0 15 89 40 101 28 4 -4 11 -28 16 -52 4
-25 15 -47 22 -49 11 -4 13 7 8 56 l-5 61 36 6 c21 4 44 8 52 9 27 5 32 -10
37 -115z m209 106 c18 -4 20 -10 16 -66 -4 -49 -2 -61 9 -57 8 3 18 28 22 57
l9 53 36 -7 c81 -14 79 -12 57 -75 -19 -53 -19 -60 -1 -60 8 0 21 21 31 50 9
28 21 50 26 50 14 0 109 -41 109 -48 0 -2 -22 -44 -50 -92 -54 -95 -62 -133
-30 -150 31 -17 51 1 110 95 29 47 57 88 61 91 10 6 99 -57 99 -69 0 -5 -16
-27 -36 -49 -27 -30 -33 -43 -25 -51 9 -9 22 -1 52 31 22 23 42 42 43 42 1 0
17 -15 35 -34 l33 -34 -189 -144 c-228 -175 -352 -270 -416 -320 -27 -21 -52
-38 -57 -38 -4 0 -11 44 -14 98 -4 53 -18 183 -32 288 -20 145 -23 197 -15
212 6 11 11 54 11 94 0 40 3 90 6 111 7 40 7 40 100 22z m-101 -950 c49 -48
15 -135 -52 -135 -51 1 -89 50 -78 101 13 59 86 79 130 34z"/>
<path d="M2220 4093 c-138 -4 -140 -6 -140 -154 0 -61 5 -119 12 -134 l11 -25
395 0 c364 0 396 1 408 18 9 12 13 52 14 133 0 172 26 158 -315 162 -154 2
-327 2 -385 0z m97 -83 c7 -14 13 -53 13 -87 0 -50 -4 -67 -20 -83 -24 -24
-48 -25 -78 -4 -19 13 -22 24 -22 90 0 97 10 116 58 112 27 -2 40 -9 49 -28z
m223 20 c11 -7 15 -30 15 -95 0 -74 -3 -89 -20 -101 -26 -19 -51 -18 -74 5
-15 15 -19 34 -19 95 0 54 5 81 15 91 16 17 60 19 83 5z m234 -6 c12 -11 16
-36 16 -90 0 -80 -18 -114 -60 -114 -42 0 -60 34 -60 114 0 84 13 106 60 106
16 0 36 -7 44 -16z m-369 -74 c0 -8 -8 -16 -17 -18 -13 -2 -18 3 -18 18 0 15
5 20 18 18 9 -2 17 -10 17 -18z m225 0 c0 -11 -7 -20 -15 -20 -8 0 -15 9 -15
20 0 11 7 20 15 20 8 0 15 -9 15 -20z m-225 -90 c0 -8 -8 -16 -17 -18 -13 -2
-18 3 -18 18 0 15 5 20 18 18 9 -2 17 -10 17 -18z m225 0 c0 -11 -7 -20 -15
-20 -8 0 -15 9 -15 20 0 11 7 20 15 20 8 0 15 -9 15 -20z"/>
<path d="M2245 3988 c-4 -14 -5 -47 -3 -74 3 -42 6 -49 26 -52 22 -3 23 -2 20
70 -2 59 -6 73 -20 76 -11 2 -19 -5 -23 -20z"/>
<path d="M2475 3989 c-5 -14 -2 -25 6 -30 19 -12 25 -11 39 6 10 12 10 18 0
30 -18 21 -38 19 -45 -6z"/>
<path d="M2474 3905 c-9 -23 3 -45 25 -45 19 0 31 25 24 48 -6 17 -42 15 -49
-3z"/>
<path d="M2708 3987 c-6 -32 1 -47 22 -47 23 0 36 36 20 55 -18 22 -37 18 -42
-8z"/>
<path d="M2700 3901 c0 -23 14 -41 30 -41 16 0 30 18 30 41 0 5 -13 9 -30 9
-16 0 -30 -4 -30 -9z"/>
<path d="M1104 3055 c-14 -36 3 -45 85 -45 92 0 111 5 111 30 0 25 -19 30
-111 30 -62 0 -81 -3 -85 -15z"/>
<path d="M3716 3054 c-13 -13 -14 -19 -5 -30 9 -11 34 -14 108 -12 95 3 96 3
96 28 0 25 -1 25 -91 28 -75 2 -95 0 -108 -14z"/>
<path d="M1056 2893 c-4 -9 0 -23 9 -32 13 -14 17 -14 31 1 9 9 14 24 11 32
-8 21 -43 20 -51 -1z"/>
<path d="M3917 2903 c-13 -12 -7 -41 10 -47 9 -4 23 -1 30 7 8 7 11 21 7 30
-6 17 -35 23 -47 10z"/>
<path d="M1027 2763 c-4 -3 -7 -17 -7 -30 0 -21 4 -23 54 -23 57 0 78 18 55
46 -12 14 -90 20 -102 7z"/>
<path d="M3884 2755 c-13 -32 4 -45 55 -45 54 0 66 9 56 40 -5 16 -15 20 -56
20 -35 0 -51 -4 -55 -15z"/>
<path d="M1022 2598 c-7 -7 -12 -20 -12 -30 0 -15 9 -18 54 -18 44 0 55 3 59
19 2 11 0 24 -6 30 -15 15 -80 14 -95 -1z"/>
<path d="M3901 2596 c-23 -27 -2 -46 50 -46 53 0 72 17 49 45 -16 19 -84 20
-99 1z"/>
<path d="M992 2491 c-8 -4 -12 -19 -10 -32 3 -21 9 -24 49 -27 35 -2 48 1 52
13 10 24 -3 45 -28 45 -13 0 -29 2 -37 5 -7 3 -19 1 -26 -4z"/>
<path d="M3935 2480 c-3 -6 -3 -19 0 -30 5 -16 15 -20 49 -20 47 0 70 17 60
44 -4 12 -19 16 -54 16 -27 0 -52 -5 -55 -10z"/>
<path d="M1037 2308 c-21 -11 -22 -47 -2 -54 19 -8 45 13 45 36 0 22 -21 31
-43 18z"/>
<path d="M3940 2287 c0 -27 20 -40 46 -30 26 10 13 48 -18 51 -24 3 -28 0 -28
-21z"/>
<path d="M1022 2183 c3 -26 7 -28 49 -31 49 -3 76 15 65 43 -4 11 -21 15 -61
15 -56 0 -56 0 -53 -27z"/>
<path d="M3862 2183 c3 -25 7 -28 47 -31 67 -5 93 4 89 31 -3 20 -9 22 -71 25
l-68 3 3 -28z"/>
<path d="M1053 2064 c-3 -8 2 -23 11 -32 15 -15 17 -15 32 0 21 21 11 48 -16
48 -11 0 -23 -7 -27 -16z"/>
<path d="M3903 2064 c-3 -8 2 -23 11 -32 15 -15 17 -15 32 0 21 21 11 48 -16
48 -11 0 -23 -7 -27 -16z"/>
<path d="M1092 1928 c-17 -17 -15 -36 6 -47 20 -11 310 -2 318 10 2 4 -5 16
-16 26 -17 17 -39 19 -158 21 -97 2 -141 -1 -150 -10z"/>
<path d="M3634 1932 c-29 -4 -62 -40 -43 -46 23 -7 306 -15 329 -9 16 4 20 12
18 32 l-3 26 -140 0 c-77 0 -150 -1 -161 -3z"/>
<path d="M1165 1775 c-37 -36 -34 -86 6 -119 38 -33 69 -33 103 -1 54 50 19
145 -54 145 -19 0 -40 -9 -55 -25z m80 -45 c8 -26 -1 -40 -26 -40 -13 0 -19 7
-19 23 0 40 34 53 45 17z"/>
<path d="M3736 1764 c-37 -38 -39 -94 -3 -131 31 -34 86 -31 126 6 39 37 41
78 5 120 -35 41 -89 43 -128 5z"/>
<path d="M3555 1681 c-16 -49 -16 -49 -46 -39 -40 14 -61 -7 -83 -84 -28 -99
-21 -135 36 -172 54 -35 176 11 231 85 27 37 16 58 -49 98 -46 27 -55 37 -50
55 3 11 8 40 12 64 6 38 5 42 -14 42 -16 0 -24 -12 -37 -49z m14 -126 c33 -20
63 -40 66 -46 10 -15 -11 -35 -60 -58 -71 -34 -115 -24 -115 24 0 30 30 115
40 115 5 0 36 -16 69 -35z"/>
<path d="M1360 1547 c-17 -8 -26 -22 -28 -43 -5 -53 40 -80 89 -54 28 15 26
74 -3 94 -27 19 -26 19 -58 3z"/>
<path d="M4348 2875 c2 -14 8 -25 13 -25 14 0 11 26 -5 39 -11 9 -12 6 -8 -14z"/>
<path d="M4381 2574 c0 -11 3 -14 6 -6 3 7 2 16 -1 19 -3 4 -6 -2 -5 -13z"/>
<path d="M4382 2270 c3 -39 15 -39 14 0 -1 16 -4 30 -9 30 -4 0 -6 -13 -5 -30z"/>
<path d="M4358 2133 c6 -2 18 -2 25 0 6 3 1 5 -13 5 -14 0 -19 -2 -12 -5z"/>
<path d="M1892 1066 c-51 -13 -95 -26 -98 -28 -3 -3 51 -33 118 -66 68 -33
127 -57 131 -53 4 4 7 43 5 87 l-3 79 -30 2 c-16 1 -72 -8 -123 -21z"/>
<path d="M2967 1083 c-4 -3 -7 -42 -7 -85 0 -61 3 -78 14 -78 20 0 249 110
243 117 -9 8 -190 53 -218 53 -14 0 -29 -3 -32 -7z"/>
<path d="M2127 1073 c-4 -3 -7 -41 -7 -84 0 -61 3 -78 16 -83 9 -3 85 -6 169
-6 177 0 175 -1 175 90 0 91 3 90 -184 90 -89 0 -166 -3 -169 -7z m214 -65 c8
-14 6 -25 -6 -44 -19 -29 -46 -31 -69 -5 -23 25 -17 52 13 67 28 15 48 9 62
-18z"/>
<path d="M2546 1064 c-11 -28 -6 -140 6 -152 17 -17 319 -17 336 0 7 7 12 40
12 78 0 38 -5 71 -12 78 -8 8 -61 12 -174 12 -138 0 -163 -2 -168 -16z m204
-44 c24 -24 24 -29 4 -58 -18 -26 -41 -28 -66 -5 -24 22 -23 49 4 67 29 20 34
20 58 -4z"/>
</g>
</svg>
